<svg width="56" height="8" viewBox="0 0 56 8" fill="none" xmlns="http://www.w3.org/2000/svg">
<path d="M56.0011 4.00257H24.0452C22.872 4.30364 21.762 4.79015 20.7627 5.44123C19.5875 6.22929 18.4571 7.07482 17.3763 7.97431C16.8675 7.16763 11.3584 5.62107 12.7809 5.37444C15.0895 6.85935 17.5514 4.86063 18.9355 3.93577C19.9093 3.27296 20.9542 2.44059 21.9335 2.35324C22.0429 2.68208 22.9565 2.86705 23.8373 2.96981H56.0011V4.00257ZM20.8995 2.59987C22.3164 2.34811 16.8128 0.80668 16.304 0C14.5753 1.5106 5.98613 7.82017 2.62706 6.67951C2.14215 6.526 1.70003 6.27238 1.33321 5.9373C0.96638 5.60222 0.684167 5.19419 0.507312 4.74321C0.330458 4.29223 0.263457 3.80975 0.311235 3.33126C0.359013 2.85276 0.520356 2.3904 0.783403 1.97816C0.9764 1.63858 1.24818 1.34407 1.57866 1.1164C1.90914 0.888728 2.28987 0.733714 2.69271 0.662813L2.84589 0.626846C2.49874 0.887645 2.22845 1.22757 2.06077 1.61425C1.89309 2.00093 1.8336 2.42148 1.88797 2.83587C1.94234 3.25025 2.10876 3.64466 2.37138 3.98154C2.634 4.31842 2.98407 4.58654 3.38825 4.76039C3.79244 4.93423 4.23728 5.008 4.68041 4.97467C5.12354 4.94134 5.55022 4.80201 5.91979 4.56997C6.28936 4.33793 6.58953 4.02089 6.79172 3.64906C6.9939 3.27722 7.09136 2.86296 7.07481 2.44573C7.02504 1.92682 6.81233 1.43348 6.46365 1.02826C6.11497 0.623028 5.64603 0.324165 5.11627 0.169557C4.25893 -0.0503211 3.35063 -0.0198546 2.51217 0.256904C1.66757 0.542576 0.967101 1.11432 0.548159 1.85999C0.27446 2.31615 0.0997618 2.81874 0.0341659 3.3387C-0.03143 3.85867 0.0133781 4.38569 0.165999 4.88929C0.31862 5.39288 0.576026 5.86307 0.923332 6.27266C1.27064 6.68225 1.70095 7.02311 2.1894 7.27553C5.07798 8.79127 8.89112 8.03597 14.7722 4.04367C16.129 3.08285 18.6018 1.11496 20.8995 2.59987Z" fill="#7A6F68"/>
</svg>
